<svg width="64" height="58" viewBox="0 0 64 58" fill="none" xmlns="http://www.w3.org/2000/svg">
<g filter="url(#filter0_d_673_46971)">
<rect x="4" width="56" height="50" rx="5" fill="#00730C" shape-rendering="crispEdges"/>
<mask id="mask0_673_46971" style="mask-type:alpha" maskUnits="userSpaceOnUse" x="17" y="10" width="30" height="30">
<rect x="17.5" y="10.5" width="29" height="29" fill="white" stroke="white"/>
</mask>
<g mask="url(#mask0_673_46971)">
<path d="M36.4274 37.1233L36.4274 37.1233C36.9019 37.6256 37.6587 37.6255 38.1328 37.1234L38.1329 37.1233C38.6223 36.6052 38.6224 35.7537 38.1329 35.2351C38.1329 35.2351 38.1328 35.235 38.1328 35.235L28.7884 25.3434L28.4641 25.0001L28.7884 24.6567L38.1325 14.765C38.6221 14.2465 38.622 13.395 38.1326 12.877L38.1324 12.8768C37.6583 12.3744 36.9017 12.3743 36.4272 12.8769L36.4271 12.877L25.8668 24.0561C25.8667 24.0561 25.8667 24.0562 25.8666 24.0562C25.625 24.3123 25.5 24.6526 25.5 25C25.5 25.3475 25.6253 25.6879 25.867 25.9439L36.4274 37.1233Z" fill="white" stroke="white"/>
</g>
<rect x="4.5" y="0.5" width="55" height="49" rx="4.5" stroke="#00730C" shape-rendering="crispEdges"/>
</g>
<defs>
<filter id="filter0_d_673_46971" x="0" y="0" width="64" height="58" filterUnits="userSpaceOnUse" color-interpolation-filters="sRGB">
<feFlood flood-opacity="0" result="BackgroundImageFix"/>
<feColorMatrix in="SourceAlpha" type="matrix" values="0 0 0 0 0 0 0 0 0 0 0 0 0 0 0 0 0 0 127 0" result="hardAlpha"/>
<feOffset dy="4"/>
<feGaussianBlur stdDeviation="2"/>
<feComposite in2="hardAlpha" operator="out"/>
<feColorMatrix type="matrix" values="0 0 0 0 0 0 0 0 0 0 0 0 0 0 0 0 0 0 0.25 0"/>
<feBlend mode="normal" in2="BackgroundImageFix" result="effect1_dropShadow_673_46971"/>
<feBlend mode="normal" in="SourceGraphic" in2="effect1_dropShadow_673_46971" result="shape"/>
</filter>
</defs>
</svg>
