<svg width="20" height="18" viewBox="0 0 20 18" fill="none" xmlns="http://www.w3.org/2000/svg">
<rect width="20" height="18" fill="#E5E5E5"/>
<g clip-path="url(#clip0_673_46511)">
<rect width="1920" height="1466" transform="translate(-1748 -231)" fill="white"/>
<g clip-path="url(#clip1_673_46511)">
<g filter="url(#filter0_d_673_46511)">
<rect x="-30" y="-11" width="137" height="40" rx="5" fill="white"/>
<path d="M11.1719 4.89844C11.4955 4.89844 11.7578 4.6361 11.7578 4.3125C11.7578 3.9889 11.4955 3.72656 11.1719 3.72656C10.8483 3.72656 10.5859 3.9889 10.5859 4.3125C10.5859 4.6361 10.8483 4.89844 11.1719 4.89844Z" fill="#00730C"/>
<path d="M13.5156 4.89844C13.8392 4.89844 14.1016 4.6361 14.1016 4.3125C14.1016 3.9889 13.8392 3.72656 13.5156 3.72656C13.192 3.72656 12.9297 3.9889 12.9297 4.3125C12.9297 4.6361 13.192 4.89844 13.5156 4.89844Z" fill="#00730C"/>
<path d="M15.8594 4.89844C16.183 4.89844 16.4453 4.6361 16.4453 4.3125C16.4453 3.9889 16.183 3.72656 15.8594 3.72656C15.5358 3.72656 15.2734 3.9889 15.2734 4.3125C15.2734 4.6361 15.5358 4.89844 15.8594 4.89844Z" fill="#00730C"/>
<path d="M13.1724 17.7891C14.137 17.7891 14.9219 17.0005 14.9219 16.0312V13.6875C14.9219 13.4354 14.7607 13.2116 14.5216 13.1318L11.0143 11.9599C10.8426 11.9025 10.6542 11.9277 10.5036 12.0281L9.01211 13.0224C7.41141 12.2629 5.51949 10.3877 4.76699 8.81547L5.76098 7.32449C5.86133 7.17394 5.88652 6.98543 5.82918 6.81379L4.6573 3.30648C4.57742 3.06742 4.35363 2.90625 4.10156 2.90625H1.75781C0.788555 2.90625 0 3.69105 0 4.65574C0 7.89313 1.47203 11.2157 4.03867 13.7716C6.6025 16.3248 9.93164 17.7891 13.1724 17.7891ZM1.75781 4.07812H3.67957L4.62684 6.91313L3.61406 8.43227C3.50703 8.59281 3.4859 8.79574 3.55758 8.97488C3.94723 9.94898 4.72699 11.0446 5.7532 12.0598C6.77266 13.0684 7.87359 13.8396 8.85324 14.2315C9.03234 14.3031 9.23535 14.282 9.39586 14.175L10.915 13.1622L13.75 14.1095V16.0312C13.75 16.3598 13.4963 16.6172 13.1724 16.6172C7.00391 16.6172 1.17188 10.8041 1.17188 4.65574C1.17188 4.33184 1.42926 4.07812 1.75781 4.07812Z" fill="#00730C"/>
<path d="M10.9477 10.7132C11.1666 10.8039 11.4186 10.7537 11.5862 10.5862L13.7583 8.41406H15.8594C18.1425 8.41406 20 6.5741 20 4.3125C20 2.0509 18.1425 0.210938 15.8594 0.210938H11.1719C8.91027 0.210938 7.07031 2.0509 7.07031 4.3125C7.07031 6.3752 8.6009 8.08715 10.5859 8.37234V10.1719C10.5859 10.4089 10.7287 10.6225 10.9477 10.7132ZM8.24219 4.3125C8.24219 2.69707 9.55645 1.38281 11.1719 1.38281H15.8594C17.4963 1.38281 18.8281 2.69707 18.8281 4.3125C18.8281 5.92793 17.4963 7.24219 15.8594 7.24219H13.5156C13.3602 7.24219 13.2112 7.30391 13.1013 7.41379L11.7578 8.75731V7.82812C11.7578 7.50453 11.4955 7.24219 11.1719 7.24219C9.55645 7.24219 8.24219 5.92793 8.24219 4.3125Z" fill="#00730C"/>
</g>
</g>
<rect x="-49.5" y="-30.5" width="176" height="139" rx="4.5" stroke="#7B61FF" stroke-dasharray="10 5"/>
</g>
<defs>
<filter id="filter0_d_673_46511" x="-58" y="-30" width="197" height="100" filterUnits="userSpaceOnUse" color-interpolation-filters="sRGB">
<feFlood flood-opacity="0" result="BackgroundImageFix"/>
<feColorMatrix in="SourceAlpha" type="matrix" values="0 0 0 0 0 0 0 0 0 0 0 0 0 0 0 0 0 0 127 0" result="hardAlpha"/>
<feOffset dx="2" dy="11"/>
<feGaussianBlur stdDeviation="15"/>
<feColorMatrix type="matrix" values="0 0 0 0 0.2 0 0 0 0 0.2 0 0 0 0 0.2 0 0 0 0.08 0"/>
<feBlend mode="normal" in2="BackgroundImageFix" result="effect1_dropShadow_673_46511"/>
<feBlend mode="normal" in="SourceGraphic" in2="effect1_dropShadow_673_46511" result="shape"/>
</filter>
<clipPath id="clip0_673_46511">
<rect width="1920" height="1466" fill="white" transform="translate(-1748 -231)"/>
</clipPath>
<clipPath id="clip1_673_46511">
<rect x="-50" y="-31" width="177" height="140" rx="5" fill="white"/>
</clipPath>
</defs>
</svg>
