<svg width="176" height="146" viewBox="0 0 176 146" fill="none" xmlns="http://www.w3.org/2000/svg">
<rect width="176" height="146" fill="#E5E5E5"/>
<rect width="1928" height="8962" transform="translate(-337 -1585)" fill="white"/>
<g filter="url(#filter0_d_17_55)">
<rect x="-77" y="-25" width="330" height="366" rx="10" fill="url(#paint0_linear_17_55)"/>
<g clip-path="url(#clip0_17_55)">
<path opacity="0.3" d="M120.884 44.241C103.923 54.558 102.021 76.6786 102.697 90.686C115.597 75.5219 131.493 67.4866 140.57 65.9714C125.975 71.6892 114.978 83.0737 105.832 95.6434C102.142 102.111 98.7464 108.439 96.8198 115.424C94.7145 107.245 91.1217 99.5974 87.2457 91.7825C76.3591 74.8188 62.9789 59.2522 44.52 50.7487C56.1535 53.3951 76.1279 64.9966 91.6775 85.6016C93.6149 67.5218 92.8168 38.7401 71.6448 24.1079C48.3501 8.01028 18.9456 2.51794 4.42372 0.709411C1.12392 0.298769 -1.16973 3.91968 0.633002 6.71428C5.38781 14.0858 11.8454 27.2105 12.7979 45.1352C13.7462 63.0502 14.8457 96.1533 78.8125 101.099C88.314 118.463 92.9932 127.72 94.723 144.313C94.8542 145.572 96.6334 145.69 96.9348 144.461C98.1123 139.656 101.209 115.492 111.907 103.196C161.383 102.262 163.714 76.8237 165.253 63.0734C166.66 50.4573 171.452 41.1577 175.315 35.4897C177.164 32.7773 175.033 29.1271 171.76 29.3876C159.962 30.327 138.533 33.5091 120.884 44.241Z" fill="#FBEEE7"/>
</g>
</g>
<g clip-path="url(#clip1_17_55)">
<path d="M72.7073 84.8113C74.1925 81.7883 72.3169 77.9238 71.1247 76.0546H65.4629C65.1728 76.0546 64.8946 76.1698 64.6895 76.3749C64.4844 76.58 64.3691 76.8582 64.3691 77.1483C64.3691 81.676 68.2573 84.9056 72.7073 84.8113Z" fill="#00730C"/>
<path d="M91.7205 76.0546H78.5811C79.4823 78.2023 80.0465 81.7548 79.5962 84.802C82.724 84.7987 85.6628 84.7976 85.8477 84.8046C86.1152 84.8148 90.2976 83.4208 92.0575 82.8522C92.2775 82.7812 92.4693 82.6422 92.6053 82.4552C92.7413 82.2683 92.8145 82.043 92.8143 81.8118V77.1483C92.8143 76.8582 92.6991 76.58 92.4939 76.3749C92.2888 76.1698 92.0106 76.0546 91.7205 76.0546Z" fill="#00730C"/>
<path d="M114.743 64.0396C108.206 63.6471 103.751 70.438 106 76.0546H104.906C104.616 76.0546 104.338 76.1698 104.133 76.3749C103.928 76.58 103.812 76.8582 103.812 77.1483V81.5233C103.812 81.8134 103.928 82.0916 104.133 82.2967C104.338 82.5018 104.616 82.6171 104.906 82.6171H114.203C115.462 82.6157 116.708 82.3587 117.865 81.8618C119.022 81.3649 120.067 80.6384 120.935 79.7262C121.803 78.814 122.477 77.7351 122.916 76.5548C123.355 75.3746 123.55 74.1175 123.489 72.8597C123.26 68.1444 119.455 64.3226 114.743 64.0396ZM114.203 78.2421C113.23 78.2421 112.278 77.9534 111.469 77.4126C110.659 76.8717 110.028 76.1031 109.656 75.2037C109.283 74.3043 109.186 73.3147 109.376 72.36C109.566 71.4052 110.034 70.5282 110.723 69.8399C111.411 69.1516 112.288 68.6828 113.243 68.4929C114.198 68.303 115.187 68.4004 116.087 68.773C116.986 69.1455 117.755 69.7763 118.296 70.5857C118.836 71.3951 119.125 72.3467 119.125 73.3202C119.124 74.6251 118.605 75.8762 117.682 76.7989C116.759 77.7216 115.508 78.2406 114.203 78.2421Z" fill="#00730C"/>
<path d="M100.525 79.3438H96.155C95.8652 79.3434 95.5873 79.228 95.3824 79.023C95.1776 78.8179 95.0625 78.5399 95.0625 78.25V46.5313C95.0621 46.2419 95.1766 45.9642 95.3807 45.7592C95.5848 45.5541 95.862 45.4384 96.1513 45.4375C100.236 45.4353 104.03 49.1653 103.803 53.3535V66.916C103.811 67.5064 101.745 73.3578 101.618 73.8827V78.25C101.618 78.5399 101.503 78.8179 101.298 79.023C101.093 79.228 100.815 79.3434 100.525 79.3438Z" fill="#00730C"/>
<path d="M95.0625 82.625V86.3984C88.0541 84.2656 80.7577 90.7945 83.7012 98.9477C84.3913 100.87 85.787 102.457 87.6049 103.387C94.6179 106.955 101.625 101.916 101.625 95.2715V82.625C101.625 82.3349 101.51 82.0567 101.305 81.8516C101.1 81.6465 100.821 81.5312 100.531 81.5312H96.1562C95.8662 81.5312 95.588 81.6465 95.3828 81.8516C95.1777 82.0567 95.0625 82.3349 95.0625 82.625ZM92.3281 100.193C91.3547 100.193 90.4031 99.9047 89.5937 99.3639C88.7843 98.8231 88.1534 98.0544 87.7809 97.155C87.4084 96.2557 87.3109 95.266 87.5008 94.3113C87.6907 93.3565 88.1595 92.4795 88.8478 91.7912C89.5362 91.1029 90.4131 90.6341 91.3679 90.4442C92.3226 90.2543 93.3123 90.3517 94.2116 90.7243C95.111 91.0968 95.8797 91.7276 96.4205 92.537C96.9613 93.3464 97.25 94.298 97.25 95.2715C97.2485 96.5764 96.7295 97.8275 95.8068 98.7502C94.8841 99.6729 93.633 100.192 92.3281 100.193Z" fill="#00730C"/>
<path d="M70.8564 70.9657C72.3521 75.0466 75.375 76.5188 75.375 82.625C75.375 90.6119 64.4375 89.7261 64.4375 103.406C64.4375 104.812 66.625 104.798 66.625 103.406C66.625 90.9193 77.5625 92.9973 77.5625 82.625C77.5625 75.7971 74.4545 74.2419 73.002 70.1699C72.4766 68.6992 70.3818 69.6707 70.8564 70.9657Z" fill="#00730C"/>
<path d="M89.6947 48.7803C89.4981 48.7 85.7192 47.1775 82.0994 46.9581C83.6454 43.7494 84.1942 39.872 84.2225 39.6659C84.2448 39.4834 84.2212 39.2981 84.1537 39.127C84.0862 38.9559 83.9771 38.8044 83.8362 38.6863C83.6953 38.5681 83.527 38.487 83.3468 38.4503C83.1666 38.4137 82.9801 38.4227 82.8042 38.4765C82.602 38.5414 78.7282 39.8043 75.814 41.9628C74.936 38.5109 72.8645 35.1877 72.7536 35.0116C72.6534 34.8573 72.5162 34.7305 72.3545 34.6428C72.1929 34.555 72.0118 34.509 71.8279 34.509C71.6439 34.509 71.4629 34.555 71.3012 34.6428C71.1395 34.7305 71.0023 34.8573 70.9021 35.0116C70.7891 35.1914 68.6341 38.6483 67.7895 42.1757C64.898 40.0952 61.1742 38.8813 60.9761 38.8176C60.8002 38.7638 60.6137 38.7548 60.4335 38.7915C60.2532 38.8281 60.085 38.9092 59.9441 39.0274C59.8032 39.1455 59.694 39.2971 59.6266 39.4682C59.5591 39.6392 59.5354 39.8245 59.5578 40.007C59.5866 40.2173 60.1576 44.2512 61.7773 47.4958C58.2256 47.7617 54.5938 49.2254 54.4006 49.3039C54.2312 49.3758 54.0825 49.4889 53.968 49.6328C53.8535 49.7768 53.7768 49.9471 53.7448 50.1283C53.7129 50.3095 53.7267 50.4958 53.7851 50.6703C53.8434 50.8447 53.9445 51.0018 54.079 51.1273C54.2364 51.2699 57.2675 53.9927 60.5942 55.4368C58.0436 57.9233 56.201 61.3789 56.104 61.5636C56.0204 61.7275 55.9792 61.9097 55.984 62.0936C55.9888 62.2775 56.0395 62.4573 56.1315 62.6166C56.2235 62.776 56.3538 62.9098 56.5107 63.0059C56.6676 63.102 56.846 63.1573 57.0297 63.1669C57.2419 63.1751 61.3136 63.3133 64.7901 62.2815C64.4347 65.8254 65.2453 69.6567 65.2892 69.8601C65.3305 70.0394 65.4161 70.2054 65.538 70.3432C65.6599 70.481 65.8143 70.5861 65.9871 70.649C66.16 70.7119 66.3459 70.7306 66.5278 70.7034C66.7097 70.6762 66.882 70.604 67.0289 70.4933C67.1968 70.3631 70.4045 67.8509 72.4044 64.8255C74.4102 67.7691 77.4942 70.1836 77.6582 70.3114C77.8052 70.4221 77.9774 70.4944 78.1594 70.5216C78.3413 70.5488 78.5272 70.5301 78.7 70.4671C78.8729 70.4042 79.0273 70.2991 79.1492 70.1613C79.2711 70.0235 79.3566 69.8574 79.398 69.6781C79.4428 69.4706 80.2867 65.4847 79.8736 61.8819C83.302 62.8473 87.2154 62.7144 87.4236 62.7064C87.6074 62.6968 87.7857 62.6414 87.9426 62.5453C88.0994 62.4491 88.2298 62.3153 88.3218 62.156C88.4138 61.9967 88.4645 61.8169 88.4693 61.633C88.4741 61.4491 88.4329 61.2669 88.3494 61.103C88.2502 60.9152 86.3333 57.3199 83.7009 54.825C86.9481 53.3609 89.8618 50.7433 90.0158 50.6036C90.1504 50.4781 90.2515 50.321 90.3099 50.1466C90.3683 49.9722 90.3822 49.7859 90.3502 49.6047C90.3183 49.4236 90.2416 49.2532 90.1272 49.1093C90.0127 48.9653 89.864 48.8522 89.6947 48.7803ZM71.8279 58.5639C70.7462 58.5639 69.6889 58.2431 68.7896 57.6422C67.8903 57.0413 67.1893 56.1872 66.7754 55.1879C66.3615 54.1886 66.2532 53.0891 66.4642 52.0282C66.6752 50.9674 67.1961 49.9929 67.9609 49.2281C68.7257 48.4633 69.7001 47.9425 70.761 47.7314C71.8218 47.5204 72.9214 47.6287 73.9207 48.0427C74.9199 48.4566 75.774 49.1575 76.375 50.0568C76.9759 50.9562 77.2966 52.0135 77.2966 53.0951C77.2966 54.5455 76.7204 55.9365 75.6949 56.9621C74.6693 57.9877 73.2783 58.5639 71.8279 58.5639Z" fill="#00730C"/>
</g>
<defs>
<filter id="filter0_d_17_55" x="-105" y="-44" width="390" height="426" filterUnits="userSpaceOnUse" color-interpolation-filters="sRGB">
<feFlood flood-opacity="0" result="BackgroundImageFix"/>
<feColorMatrix in="SourceAlpha" type="matrix" values="0 0 0 0 0 0 0 0 0 0 0 0 0 0 0 0 0 0 127 0" result="hardAlpha"/>
<feOffset dx="2" dy="11"/>
<feGaussianBlur stdDeviation="15"/>
<feColorMatrix type="matrix" values="0 0 0 0 0.2 0 0 0 0 0.2 0 0 0 0 0.2 0 0 0 0.08 0"/>
<feBlend mode="normal" in2="BackgroundImageFix" result="effect1_dropShadow_17_55"/>
<feBlend mode="normal" in="SourceGraphic" in2="effect1_dropShadow_17_55" result="shape"/>
</filter>
<linearGradient id="paint0_linear_17_55" x1="24" y1="-85" x2="88" y2="341" gradientUnits="userSpaceOnUse">
<stop stop-color="white"/>
<stop offset="1" stop-color="white"/>
</linearGradient>
<clipPath id="clip0_17_55">
<rect width="176" height="176" fill="white" transform="translate(0 -15)"/>
</clipPath>
<clipPath id="clip1_17_55">
<rect width="70" height="70" fill="white" transform="translate(53.5 34.5)"/>
</clipPath>
</defs>
</svg>
