<svg width="176" height="146" viewBox="0 0 176 146" fill="none" xmlns="http://www.w3.org/2000/svg">
<rect width="176" height="146" fill="#E5E5E5"/>
<rect width="1928" height="8962" transform="translate(-697 -1585)" fill="white"/>
<g filter="url(#filter0_d_17_55)">
<rect x="-77" y="-25" width="330" height="366" rx="10" fill="url(#paint0_linear_17_55)"/>
<g clip-path="url(#clip0_17_55)">
<path opacity="0.3" d="M120.884 44.241C103.923 54.558 102.021 76.6786 102.697 90.686C115.597 75.5219 131.493 67.4866 140.57 65.9714C125.975 71.6892 114.978 83.0737 105.832 95.6434C102.142 102.111 98.7464 108.439 96.8198 115.424C94.7145 107.245 91.1217 99.5974 87.2457 91.7825C76.3591 74.8188 62.9789 59.2522 44.52 50.7487C56.1535 53.3951 76.1279 64.9966 91.6775 85.6016C93.6149 67.5218 92.8168 38.7401 71.6448 24.1079C48.3501 8.01028 18.9456 2.51794 4.42372 0.709411C1.12392 0.298769 -1.16973 3.91968 0.633002 6.71428C5.38781 14.0858 11.8454 27.2105 12.7979 45.1352C13.7462 63.0502 14.8457 96.1533 78.8125 101.099C88.314 118.463 92.9932 127.72 94.723 144.313C94.8542 145.572 96.6334 145.69 96.9348 144.461C98.1123 139.656 101.209 115.492 111.907 103.196C161.383 102.262 163.714 76.8237 165.253 63.0734C166.66 50.4573 171.452 41.1577 175.315 35.4897C177.164 32.7773 175.033 29.1271 171.76 29.3876C159.962 30.327 138.533 33.5091 120.884 44.241Z" fill="#FBEEE7"/>
</g>
</g>
<path d="M59.0638 53.1673L57.3138 56.1983C56.6694 57.3143 57.0518 58.7413 58.1678 59.3857L69.2814 65.8023C70.3974 66.4467 71.8244 66.0643 72.4688 64.9483L74.2188 61.9173C74.8631 60.8013 74.4807 59.3743 73.3648 58.73L62.2511 52.3133C61.1351 51.669 59.7081 52.0513 59.0638 53.1673Z" fill="#00730C"/>
<path d="M81.1733 64.4017L76.8333 61.9167L73.9166 66.9684C78.7466 69.7451 78.385 69.6168 78.8283 69.5701C79.5009 70.4313 80.1167 71.3354 80.6716 72.2768C81.4799 70.6567 82.4039 69.0971 83.4366 67.6101C82.6666 66.9451 82.0133 66.4434 81.535 66.0934C81.8697 65.5208 81.7129 64.7875 81.1733 64.4017Z" fill="#00730C"/>
<path d="M69.278 83.6973L58.1643 90.114C57.0484 90.7583 56.666 92.1853 57.3103 93.3013L59.0603 96.3323C59.7047 97.4483 61.1317 97.8306 62.2477 97.1863L73.3614 90.7696C74.4773 90.1253 74.8597 88.6983 74.2153 87.5823L72.4653 84.5513C71.821 83.4353 70.394 83.053 69.278 83.6973Z" fill="#00730C"/>
<path d="M103.748 56.8184C97.8333 59.3384 98.2066 59.0934 96.4099 60.1667C92.1166 62.6517 87.8583 65.2884 85.1866 69.1967C84.0345 70.9958 82.9904 72.8619 82.0599 74.785C81.1747 76.6277 80.1036 78.3751 78.8633 80C78.3733 80 78.7933 79.79 73.9399 82.59L76.8333 87.5834L81.1499 85.0984C81.6957 84.6877 81.8375 83.9283 81.4766 83.3484L81.5466 83.4417C84.7741 80.9912 87.6103 78.0645 89.9583 74.7617C94.3799 68.6717 89.7249 72.0667 105.125 63.1767L119.125 55.115C113.937 54.4707 108.67 55.0542 103.748 56.8184Z" fill="#00730C"/>
<path d="M91.37 76.7918C89.9381 78.7196 88.35 80.5262 86.6217 82.1935C89.235 85.2268 95.5117 89.0651 98.825 90.6518C98.2461 93.5982 97.4067 96.4873 96.3167 99.2851C95.8424 100.256 95.9438 101.41 96.58 102.283C97.2163 103.156 98.2833 103.606 99.3528 103.452C100.422 103.298 101.319 102.566 101.683 101.548C102.834 98.7466 103.74 95.8502 104.39 92.8918C109.114 94.4937 114.14 95.0043 119.09 94.3851L105.557 86.5685C106.518 79.6288 106.518 72.5898 105.557 65.6501L100.003 68.8585C100.49 73.6723 100.49 78.523 100.003 83.3368C91.7667 78.6118 93.4584 79.8718 91.37 76.7918Z" fill="#00730C"/>
<path d="M92.805 51.0201C90.4717 44.5101 78.8633 39.9951 74.3833 43.6467C74.255 46.5867 77.1717 50.2617 81.6867 52.5251C85.8983 54.6251 90.2383 54.8584 92.6533 53.3651C93.9741 53.5344 95.311 53.5344 96.6317 53.3651C97.0167 54.5317 97.39 55.6984 97.705 56.8651L103.002 54.6251C103.188 54.6251 103.13 54.6251 103.002 54.3101C102.43 48.0801 111.833 43.6117 111.833 43.5767C112.882 43.2265 113.642 42.3136 113.797 41.219C113.952 40.1244 113.475 39.0363 112.565 38.4089C111.655 37.7815 110.468 37.7226 109.5 38.2567C105.814 40.0062 102.568 42.562 100.003 45.7351C98.7523 42.7866 97.3265 39.9154 95.7333 37.1367C95.2301 36.2055 94.2618 35.6201 93.2034 35.607C92.145 35.594 91.1626 36.1553 90.6365 37.0738C90.1104 37.9923 90.1233 39.1237 90.67 40.0301C92.6984 43.5735 94.4347 47.2763 95.8617 51.1017C94.8429 51.1872 93.8178 51.1599 92.805 51.0201Z" fill="#00730C"/>
<defs>
<filter id="filter0_d_17_55" x="-105" y="-44" width="390" height="426" filterUnits="userSpaceOnUse" color-interpolation-filters="sRGB">
<feFlood flood-opacity="0" result="BackgroundImageFix"/>
<feColorMatrix in="SourceAlpha" type="matrix" values="0 0 0 0 0 0 0 0 0 0 0 0 0 0 0 0 0 0 127 0" result="hardAlpha"/>
<feOffset dx="2" dy="11"/>
<feGaussianBlur stdDeviation="15"/>
<feColorMatrix type="matrix" values="0 0 0 0 0.2 0 0 0 0 0.2 0 0 0 0 0.2 0 0 0 0.08 0"/>
<feBlend mode="normal" in2="BackgroundImageFix" result="effect1_dropShadow_17_55"/>
<feBlend mode="normal" in="SourceGraphic" in2="effect1_dropShadow_17_55" result="shape"/>
</filter>
<linearGradient id="paint0_linear_17_55" x1="24" y1="-85" x2="88" y2="341" gradientUnits="userSpaceOnUse">
<stop stop-color="white"/>
<stop offset="1" stop-color="white"/>
</linearGradient>
<clipPath id="clip0_17_55">
<rect width="176" height="176" fill="white" transform="translate(0 -15)"/>
</clipPath>
</defs>
</svg>
