<svg width="176" height="146" viewBox="0 0 176 146" fill="none" xmlns="http://www.w3.org/2000/svg">
<rect width="176" height="146" fill="#E5E5E5"/>
<rect width="1928" height="8962" transform="translate(-697 -1189)" fill="white"/>
<g filter="url(#filter0_d_17_55)">
<rect x="-77" y="-25" width="330" height="366" rx="10" fill="url(#paint0_linear_17_55)"/>
<g clip-path="url(#clip0_17_55)">
<path opacity="0.3" d="M120.884 44.241C103.923 54.558 102.021 76.6786 102.697 90.686C115.597 75.5219 131.493 67.4866 140.57 65.9714C125.975 71.6892 114.978 83.0737 105.832 95.6434C102.142 102.111 98.7464 108.439 96.8198 115.424C94.7145 107.245 91.1217 99.5974 87.2457 91.7825C76.3591 74.8188 62.9789 59.2522 44.52 50.7487C56.1535 53.3951 76.1279 64.9966 91.6775 85.6016C93.6149 67.5218 92.8168 38.7401 71.6448 24.1079C48.3501 8.01028 18.9456 2.51794 4.42372 0.709411C1.12392 0.298769 -1.16973 3.91968 0.633002 6.71428C5.38781 14.0858 11.8454 27.2105 12.7979 45.1352C13.7462 63.0502 14.8457 96.1533 78.8125 101.099C88.314 118.463 92.9932 127.72 94.723 144.313C94.8542 145.572 96.6334 145.69 96.9348 144.461C98.1123 139.656 101.209 115.492 111.907 103.196C161.383 102.262 163.714 76.8237 165.253 63.0734C166.66 50.4573 171.452 41.1577 175.315 35.4897C177.164 32.7773 175.033 29.1271 171.76 29.3876C159.962 30.327 138.533 33.5091 120.884 44.241Z" fill="#FBEEE7"/>
</g>
</g>
<g clip-path="url(#clip1_17_55)">
<path d="M82.3475 90.0763C82.3475 84.4226 77.7473 79.8224 72.0936 79.8224C66.4399 79.8224 61.8398 84.4227 61.8398 90.0763C61.8398 95.7299 66.4399 100.33 72.0936 100.33C77.9721 100.33 82.3475 95.5143 82.3475 90.0763ZM70.0428 90.0763C70.0428 88.9434 70.961 88.0255 72.0936 88.0255C73.2262 88.0255 74.1444 88.9434 74.1444 90.0763C74.1444 91.2089 73.2262 92.1271 72.0936 92.1271C70.961 92.1271 70.0428 91.2089 70.0428 90.0763Z" fill="#00730C"/>
<path d="M115.297 83.924C110.773 83.924 107.094 87.6029 107.094 92.1271C107.094 96.5356 110.663 100.33 115.297 100.33C119.821 100.33 123.5 96.6512 123.5 92.1271C123.5 87.494 119.724 83.924 115.297 83.924Z" fill="#00730C"/>
<path d="M115.297 79.8224C116.456 79.8224 117.556 80.0257 118.645 80.3438C117.461 77.3763 114.946 75.0326 111.704 74.1848C84.7805 67.2207 88.5832 68.2486 86.9459 67.8261C82.8103 66.7866 78.0559 68.5711 75.7347 72.2862L73.4727 75.8603C80.7332 76.5663 86.4493 82.6337 86.4493 90.0763C86.4493 92.2156 85.9432 94.3128 85.0272 96.2286H103.716C103.711 96.2133 103.702 96.1998 103.697 96.1846C103.241 94.967 102.992 93.569 102.992 92.127C102.992 85.3418 108.512 79.8224 115.297 79.8224ZM92.6015 85.9747C92.6015 87.1082 91.6843 88.0255 90.5507 88.0255C89.4172 88.0255 88.5 87.1082 88.5 85.9747V81.8731C88.5 80.7396 89.4172 79.8224 90.5507 79.8224C91.6843 79.8224 92.6015 80.7396 92.6015 81.8731V85.9747ZM100.941 85.9747C100.941 87.1082 100.024 88.0255 98.8906 88.0255C97.757 88.0255 96.8398 87.1082 96.8398 85.9747V81.8731C96.8398 80.7396 97.757 79.8224 98.8906 79.8224C100.024 79.8224 100.941 80.7396 100.941 81.8731V85.9747Z" fill="#00730C"/>
<path d="M109.145 67.5177C109.145 68.6512 110.198 69.5685 111.332 69.5685H119.398C120.532 69.5685 121.449 68.6512 121.449 67.5177C121.449 66.3842 120.532 65.4669 119.398 65.4669H111.332C110.198 65.4669 109.145 66.3842 109.145 67.5177Z" fill="#00730C"/>
<path d="M107.506 61.3654C108.074 62.3494 109.332 62.6802 110.308 62.1164L117.402 58.0148C118.383 57.448 118.719 56.1944 118.153 55.2131C117.582 54.2277 116.326 53.8973 115.351 54.4621L108.257 58.5636C107.275 59.1305 106.939 60.3842 107.506 61.3654Z" fill="#00730C"/>
<path d="M105.863 56.0978L109.826 48.9942C110.393 48.0128 110.057 46.7591 109.075 46.1924C108.094 45.6257 106.838 45.9581 106.273 46.9434L102.311 54.047C101.744 55.0284 102.08 56.2821 103.061 56.8488C104.039 57.4137 105.296 57.08 105.863 56.0978Z" fill="#00730C"/>
<path d="M54.9018 42.6655L66.0856 46.4852L69.0714 76.0546C71.6433 75.4999 72.7568 75.7982 73.1717 75.8298L70.0328 44.753C69.9506 43.9499 69.4059 43.269 68.6408 43.0146L56.1994 38.7763C55.118 38.4158 53.9644 38.9986 53.6059 40.0721C53.2475 41.1475 53.8283 42.3091 54.9018 42.6655Z" fill="#00730C"/>
<path d="M98.3558 62.2967C94.3443 61.2231 91.6862 60.5603 89.9559 60.1597C88.1515 59.6892 86.2388 60.0856 84.7388 61.2452C83.9408 61.8623 83.3349 62.6513 82.9266 63.5348C84.491 63.3616 86.0981 63.3844 87.9452 63.8487L102.856 67.6439L102.892 67.6589C102.635 65.0846 100.869 62.909 98.3558 62.2967Z" fill="#00730C"/>
</g>
<defs>
<filter id="filter0_d_17_55" x="-105" y="-44" width="390" height="426" filterUnits="userSpaceOnUse" color-interpolation-filters="sRGB">
<feFlood flood-opacity="0" result="BackgroundImageFix"/>
<feColorMatrix in="SourceAlpha" type="matrix" values="0 0 0 0 0 0 0 0 0 0 0 0 0 0 0 0 0 0 127 0" result="hardAlpha"/>
<feOffset dx="2" dy="11"/>
<feGaussianBlur stdDeviation="15"/>
<feColorMatrix type="matrix" values="0 0 0 0 0.2 0 0 0 0 0.2 0 0 0 0 0.2 0 0 0 0.08 0"/>
<feBlend mode="normal" in2="BackgroundImageFix" result="effect1_dropShadow_17_55"/>
<feBlend mode="normal" in="SourceGraphic" in2="effect1_dropShadow_17_55" result="shape"/>
</filter>
<linearGradient id="paint0_linear_17_55" x1="24" y1="-85" x2="88" y2="341" gradientUnits="userSpaceOnUse">
<stop stop-color="white"/>
<stop offset="1" stop-color="white"/>
</linearGradient>
<clipPath id="clip0_17_55">
<rect width="176" height="176" fill="white" transform="translate(0 -15)"/>
</clipPath>
<clipPath id="clip1_17_55">
<rect width="70" height="70" fill="white" transform="translate(53.5 34.5)"/>
</clipPath>
</defs>
</svg>
