<svg width="176" height="146" viewBox="0 0 176 146" fill="none" xmlns="http://www.w3.org/2000/svg">
<rect width="176" height="146" fill="#E5E5E5"/>
<rect width="1928" height="8962" transform="translate(-1417 -1585)" fill="white"/>
<g filter="url(#filter0_d_17_55)">
<rect x="-77" y="-25" width="330" height="366" rx="10" fill="url(#paint0_linear_17_55)"/>
<g clip-path="url(#clip0_17_55)">
<path opacity="0.3" d="M120.884 44.241C103.923 54.558 102.021 76.6786 102.697 90.686C115.597 75.5219 131.493 67.4866 140.57 65.9714C125.975 71.6892 114.978 83.0737 105.832 95.6434C102.142 102.111 98.7463 108.439 96.8197 115.424C94.7144 107.245 91.1216 99.5974 87.2456 91.7825C76.359 74.8188 62.9787 59.2522 44.5199 50.7487C56.1533 53.3951 76.1278 64.9966 91.6774 85.6016C93.6148 67.5218 92.8167 38.7401 71.6447 24.1079C48.35 8.01028 18.9454 2.51794 4.4236 0.709411C1.1238 0.298769 -1.16986 3.91968 0.63288 6.71428C5.38769 14.0858 11.8453 27.2105 12.7978 45.1352C13.746 63.0502 14.8456 96.1533 78.8124 101.099C88.3139 118.463 92.9931 127.72 94.7228 144.313C94.8541 145.572 96.6333 145.69 96.9347 144.461C98.1122 139.656 101.209 115.492 111.907 103.196C161.383 102.262 163.714 76.8237 165.253 63.0734C166.66 50.4573 171.452 41.1577 175.315 35.4897C177.164 32.7773 175.033 29.1271 171.76 29.3876C159.962 30.327 138.533 33.5091 120.884 44.241Z" fill="#FBEEE7"/>
</g>
</g>
<path d="M119.582 52.5837V43.9935C119.583 42.2469 118.899 40.5697 117.678 39.3222L115.377 37.0195C114.576 36.196 113.477 35.7312 112.328 35.7305H112.318C111.166 35.7301 110.063 36.1941 109.256 37.0175L105.803 40.5095L104.07 38.993C103.681 38.6443 103.176 38.4524 102.654 38.4542C102.082 38.4572 101.533 38.6868 101.129 39.0927L100.923 39.2992L100.231 38.6008C98.8637 37.214 96.9982 36.4334 95.0516 36.4334C93.105 36.4334 91.2394 37.214 89.8721 38.6008C87.0231 41.4986 87.0231 46.148 89.8721 49.0457L90.5799 49.7621L90.5429 49.799C89.6955 50.6633 89.6955 52.0476 90.5429 52.9119L107.678 70.241C107.884 70.4512 108.166 70.5696 108.461 70.5696C108.755 70.5696 109.037 70.4512 109.243 70.241L122.551 56.7919C122.771 56.5656 122.889 56.2595 122.88 55.9439C122.87 55.6287 122.729 55.3319 122.491 55.1258L119.582 52.5837ZM91.9783 48.3385L91.2866 47.6401C89.203 45.5218 89.203 42.1221 91.2866 40.0037C92.2794 38.9959 93.6344 38.4285 95.0486 38.4285C96.4626 38.4285 97.8178 38.9959 98.8106 40.0037L99.5223 40.719L91.9783 48.3385ZM117.588 50.8277L107.309 41.8264L110.673 38.4242C111.105 37.9787 111.699 37.7269 112.319 37.7258C112.937 37.7283 113.527 37.9801 113.957 38.4242L116.262 40.7339C117.112 41.6053 117.586 42.7755 117.584 43.9933L117.588 50.8277Z" fill="#00730C"/>
<path fill-rule="evenodd" clip-rule="evenodd" d="M87.949 62.6263V66.7598H102.788L96.9852 60.9052L87.949 62.6263Z" fill="#00730C"/>
<path fill-rule="evenodd" clip-rule="evenodd" d="M80.1256 59.197V71.2777C80.1163 71.5584 80.2851 71.8145 80.5467 71.9166C80.7917 72.026 81.079 71.9673 81.2612 71.7705L85.3412 67.5419V62.1517L81.3486 58.7928C81.2059 58.6267 81.0015 58.5263 80.7828 58.515C80.7017 58.5152 80.6215 58.5315 80.5467 58.5633C80.287 58.6648 80.1186 58.9183 80.1256 59.197Z" fill="#00730C"/>
<path fill-rule="evenodd" clip-rule="evenodd" d="M73.6059 69.3676C71.4455 69.3676 69.6941 71.119 69.6941 73.2793V75.8872C69.6941 76.6074 70.278 77.1911 70.998 77.1911C71.7181 77.1911 72.3018 76.6074 72.3018 75.8872V73.2793C72.3018 72.5592 72.8857 71.9755 73.6057 71.9755C74.3259 71.9755 74.9096 71.3917 74.9096 70.6716C74.9096 69.9514 74.326 69.3676 73.6059 69.3676Z" fill="#00730C"/>
<path fill-rule="evenodd" clip-rule="evenodd" d="M73.6059 64.152C68.5677 64.1584 64.4849 68.2411 64.4785 73.2794V75.8873C64.4785 76.6074 65.0622 77.1911 65.7824 77.1911C66.5025 77.1911 67.0863 76.6074 67.0863 75.8873V73.2794C67.0905 69.6806 70.0069 66.7642 73.6059 66.7597C74.3261 66.7597 74.9098 66.176 74.9098 65.4558C74.9098 64.7357 74.3261 64.152 73.6059 64.152Z" fill="#00730C"/>
<path fill-rule="evenodd" clip-rule="evenodd" d="M73.6059 58.9363C65.6882 58.9456 59.272 65.3618 59.2627 73.2795V75.8872C59.2627 76.6074 59.8466 77.1911 60.5666 77.1911C61.2866 77.1911 61.8704 76.6074 61.8704 75.8872V73.2793C61.8776 66.8011 67.1275 61.5512 73.6057 61.544C74.3259 61.544 74.9096 60.9602 74.9096 60.2401C74.9097 59.52 74.326 58.9363 73.6059 58.9363Z" fill="#00730C"/>
<path fill-rule="evenodd" clip-rule="evenodd" d="M98.3803 101.966C98.3803 101.246 97.7966 100.662 97.0764 100.662H77.5176V97.2063C77.7742 96.8829 78.0485 96.5739 78.3391 96.2805C78.6141 95.9859 78.9057 95.7072 79.2127 95.446H86.645C91.6836 95.4402 95.7668 91.3572 95.7724 86.3186V81.2463C93.3648 82.857 90.5326 83.7149 87.6359 83.7107C83.1616 83.7137 79.3276 86.9115 78.5215 91.3126L78.2477 92.8511C77.5198 93.4208 76.8395 94.0487 76.2136 94.7288C75.5877 94.0487 74.9074 93.4208 74.1795 92.8511L73.9057 91.3126C73.0996 86.9114 69.2656 83.7137 64.7912 83.7107C61.8945 83.7149 59.0623 82.857 56.6548 81.2463V86.3186C56.6606 91.3572 60.7436 95.4404 65.7822 95.446H73.2145C73.8312 95.9807 74.3986 96.5699 74.9096 97.2063V100.662H55.3507C54.6306 100.662 54.0469 101.246 54.0469 101.966C54.0469 102.686 54.6307 103.27 55.3509 103.27H97.0764C97.7966 103.27 98.3803 102.686 98.3803 101.966Z" fill="#00730C"/>
<defs>
<filter id="filter0_d_17_55" x="-105" y="-44" width="390" height="426" filterUnits="userSpaceOnUse" color-interpolation-filters="sRGB">
<feFlood flood-opacity="0" result="BackgroundImageFix"/>
<feColorMatrix in="SourceAlpha" type="matrix" values="0 0 0 0 0 0 0 0 0 0 0 0 0 0 0 0 0 0 127 0" result="hardAlpha"/>
<feOffset dx="2" dy="11"/>
<feGaussianBlur stdDeviation="15"/>
<feColorMatrix type="matrix" values="0 0 0 0 0.2 0 0 0 0 0.2 0 0 0 0 0.2 0 0 0 0.08 0"/>
<feBlend mode="normal" in2="BackgroundImageFix" result="effect1_dropShadow_17_55"/>
<feBlend mode="normal" in="SourceGraphic" in2="effect1_dropShadow_17_55" result="shape"/>
</filter>
<linearGradient id="paint0_linear_17_55" x1="24" y1="-85" x2="88" y2="341" gradientUnits="userSpaceOnUse">
<stop stop-color="white"/>
<stop offset="1" stop-color="white"/>
</linearGradient>
<clipPath id="clip0_17_55">
<rect width="176" height="176" fill="white" transform="translate(0 -15)"/>
</clipPath>
</defs>
</svg>
