<svg width="176" height="146" viewBox="0 0 176 146" fill="none" xmlns="http://www.w3.org/2000/svg">
<rect width="176" height="146" fill="#E5E5E5"/>
<rect width="1928" height="8962" transform="translate(-1057 -1189)" fill="white"/>
<g filter="url(#filter0_d_17_55)">
<rect x="-77" y="-25" width="330" height="366" rx="10" fill="url(#paint0_linear_17_55)"/>
<g clip-path="url(#clip0_17_55)">
<path opacity="0.3" d="M120.884 44.241C103.923 54.558 102.021 76.6786 102.697 90.686C115.597 75.5219 131.493 67.4866 140.57 65.9714C125.975 71.6892 114.978 83.0737 105.832 95.6434C102.142 102.111 98.7464 108.439 96.8198 115.424C94.7145 107.245 91.1217 99.5974 87.2457 91.7825C76.3591 74.8188 62.9789 59.2522 44.52 50.7487C56.1535 53.3951 76.1279 64.9966 91.6775 85.6016C93.6149 67.5218 92.8168 38.7401 71.6448 24.1079C48.3501 8.01028 18.9456 2.51794 4.42372 0.709411C1.12392 0.298769 -1.16973 3.91968 0.633002 6.71428C5.38781 14.0858 11.8454 27.2105 12.7979 45.1352C13.7462 63.0502 14.8457 96.1533 78.8125 101.099C88.314 118.463 92.9932 127.72 94.723 144.313C94.8542 145.572 96.6334 145.69 96.9348 144.461C98.1123 139.656 101.209 115.492 111.907 103.196C161.383 102.262 163.714 76.8237 165.253 63.0734C166.66 50.4573 171.452 41.1577 175.315 35.4897C177.164 32.7773 175.033 29.1271 171.76 29.3876C159.962 30.327 138.533 33.5091 120.884 44.241Z" fill="#FBEEE7"/>
</g>
</g>
<g clip-path="url(#clip1_17_55)">
<path d="M94.9851 46.1595C92.5604 43.8449 88.7184 43.9341 86.4044 46.3587C84.0898 48.7833 84.1784 52.6248 86.603 54.9394C89.0277 57.254 92.8691 57.1648 95.1837 54.7402C97.4983 52.3161 97.4092 48.4741 94.9851 46.1595Z" fill="#00730C"/>
<path d="M105.213 66.4094C105.213 65.0919 104.268 63.996 103.019 63.7594C103.271 64.4083 103.448 65.1501 103.448 65.9538C103.448 67.188 103.029 68.2781 102.567 69.1059C104.033 69.0775 105.213 67.8823 105.213 66.4094Z" fill="#00730C"/>
<path d="M121.391 90.4035H119.833C118.793 90.4035 117.796 89.9906 117.061 89.2558L116.254 88.4483V84.6917C116.687 84.0279 117.166 83.0457 117.166 81.9498C117.166 79.9487 115.57 78.3268 115.57 78.3268C115.57 78.3268 113.975 79.9487 113.975 81.9498C113.975 83.0463 114.454 84.0279 114.887 84.6917V85.6274C114.768 85.4068 114.618 85.1959 114.432 85.0089C113.416 83.9937 111.678 84.085 111.678 84.085C111.678 84.085 111.586 85.8234 112.602 86.8386C113.287 87.5238 114.299 87.7043 114.887 87.7497V88.4483L114.079 89.2558C113.344 89.9906 112.347 90.4035 111.308 90.4035H108.485C107.446 90.4035 106.449 89.9906 105.714 89.2558L105.477 89.0186C104.785 88.326 103.661 88.326 102.968 89.0186L102.732 89.2558C101.997 89.9906 101 90.4035 99.9604 90.4035H91.7145C93.1186 89.6616 93.8443 88.005 93.3605 86.4311L89.5911 74.5734C89.2151 73.3489 88.178 72.4431 86.9139 72.2353L86.2191 72.1211L80.5773 78.0309L83.7549 78.5543L86.9101 88.413C87.1841 89.3049 87.7945 89.9997 88.5588 90.4035H76.4789C78.1831 89.503 78.7775 87.3764 77.8216 85.7288L71.1036 74.1515L76.2888 79.702L85.3806 70.1776L82.4225 62.9491L87.5211 70.2155C87.7118 70.4874 87.9505 70.7213 88.2261 70.9061L97.7964 77.3319C99.0365 78.165 100.712 77.8307 101.542 76.5959C102.352 75.39 102.057 73.7692 100.896 72.9179V68.6956C101.329 68.0318 101.807 67.0502 101.807 65.9538C101.807 63.9526 100.212 62.3307 100.212 62.3307C100.212 62.3307 98.6172 63.9526 98.6172 65.9538C98.6172 67.0502 99.0957 68.0318 99.5289 68.6961V71.9929L91.652 66.7041L86.8412 59.8479L90.1375 62.8311L92.3597 64.75L97.4006 68.1348C97.1518 67.4892 96.9766 66.7516 96.9766 65.9538C96.9766 65.1302 97.1635 64.3703 97.4247 63.7102H93.7856L83.6342 55.4809C81.9963 53.9172 79.4008 53.9775 77.8376 55.6155L63.9142 70.4195C62.9384 71.4567 62.6591 73.0434 63.4143 74.3443C64.4909 76.2002 67.6921 81.7175 69.0443 84.0482H59.2625C57.4024 84.0482 55.8307 85.5184 55.8072 87.3785C55.7906 88.6891 56.5223 89.8304 57.6011 90.4035H55.5508C54.3898 90.4035 53.4472 91.3754 53.5022 92.553C53.5545 93.6564 54.5057 94.505 55.6101 94.505H121.449C122.615 94.505 123.553 93.533 123.498 92.3554C123.446 91.2521 122.495 90.4035 121.391 90.4035Z" fill="#00730C"/>
</g>
<defs>
<filter id="filter0_d_17_55" x="-105" y="-44" width="390" height="426" filterUnits="userSpaceOnUse" color-interpolation-filters="sRGB">
<feFlood flood-opacity="0" result="BackgroundImageFix"/>
<feColorMatrix in="SourceAlpha" type="matrix" values="0 0 0 0 0 0 0 0 0 0 0 0 0 0 0 0 0 0 127 0" result="hardAlpha"/>
<feOffset dx="2" dy="11"/>
<feGaussianBlur stdDeviation="15"/>
<feColorMatrix type="matrix" values="0 0 0 0 0.2 0 0 0 0 0.2 0 0 0 0 0.2 0 0 0 0.08 0"/>
<feBlend mode="normal" in2="BackgroundImageFix" result="effect1_dropShadow_17_55"/>
<feBlend mode="normal" in="SourceGraphic" in2="effect1_dropShadow_17_55" result="shape"/>
</filter>
<linearGradient id="paint0_linear_17_55" x1="24" y1="-85" x2="88" y2="341" gradientUnits="userSpaceOnUse">
<stop stop-color="white"/>
<stop offset="1" stop-color="white"/>
</linearGradient>
<clipPath id="clip0_17_55">
<rect width="176" height="176" fill="white" transform="translate(0 -15)"/>
</clipPath>
<clipPath id="clip1_17_55">
<rect width="70" height="70" fill="white" transform="translate(53.5 34.5)"/>
</clipPath>
</defs>
</svg>
