<svg width="112" height="94" viewBox="0 0 112 94" fill="none" xmlns="http://www.w3.org/2000/svg">
<path opacity="0.3" d="M76.9261 28.6989C66.133 35.2642 64.9222 49.341 65.3527 58.2548C73.5619 48.6049 83.6774 43.4916 89.4534 42.5273C80.1658 46.1659 73.168 53.4106 67.3477 61.4095C64.9996 65.5253 62.8385 69.5524 61.6125 73.9975C60.2728 68.7922 57.9865 63.9257 55.5199 58.9525C48.5921 48.1575 40.0774 38.2514 28.3308 32.8402C35.7339 34.5242 48.4449 41.907 58.3401 55.0193C59.5731 43.5139 59.0652 25.1983 45.5921 15.8869C30.7682 5.64296 12.0562 2.14783 2.81502 0.996954C0.715144 0.735636 -0.744453 3.03985 0.402742 4.81824C3.42853 9.50919 7.5379 17.8613 8.14404 29.2679C8.74747 40.6684 9.44718 61.734 50.1533 64.8811C56.1997 75.9308 59.1774 81.8218 60.2782 92.3811C60.3617 93.1822 61.4939 93.2576 61.6857 92.4752C62.435 89.4177 64.4055 74.0402 71.2132 66.2156C102.698 65.621 104.182 49.4333 105.161 40.6831C106.056 32.6547 109.106 26.7368 111.564 23.1299C112.741 21.4038 111.384 19.0809 109.302 19.2467C101.794 19.8445 88.1571 21.8695 76.9261 28.6989Z" fill="#FBEEE7"/>
</svg>
