<svg width="176" height="146" viewBox="0 0 176 146" fill="none" xmlns="http://www.w3.org/2000/svg">
<rect width="176" height="146" fill="#E5E5E5"/>
<rect width="1928" height="8962" transform="translate(-337 -1189)" fill="white"/>
<rect x="-77" y="-25" width="330" height="366" rx="10" fill="#00730C"/>
<g clip-path="url(#clip0_17_55)">
<path opacity="0.05" d="M120.884 44.241C103.923 54.558 102.021 76.6786 102.697 90.686C115.597 75.522 131.493 67.4866 140.57 65.9714C125.975 71.6892 114.978 83.0737 105.832 95.6434C102.142 102.111 98.7464 108.439 96.8198 115.424C94.7145 107.245 91.1217 99.5974 87.2457 91.7825C76.3591 74.8188 62.9788 59.2522 44.52 50.7487C56.1535 53.3951 76.1279 64.9965 91.6775 85.6016C93.6149 67.5218 92.8168 38.7401 71.6448 24.1079C48.3501 8.01028 18.9456 2.51794 4.42372 0.709411C1.12392 0.298769 -1.16973 3.91968 0.633002 6.71428C5.38781 14.0858 11.8454 27.2105 12.7979 45.1352C13.7462 63.0502 14.8457 96.1533 78.8125 101.099C88.314 118.463 92.9932 127.72 94.723 144.313C94.8542 145.572 96.6334 145.69 96.9348 144.461C98.1123 139.656 101.209 115.492 111.907 103.196C161.383 102.262 163.714 76.8237 165.253 63.0734C166.66 50.4573 171.452 41.1577 175.315 35.4897C177.164 32.7773 175.033 29.1271 171.76 29.3876C159.962 30.327 138.533 33.5091 120.884 44.241Z" fill="#FBEEE7"/>
</g>
<g clip-path="url(#clip1_17_55)">
<path d="M107.437 102.312C106.924 101.957 105.8 101.193 104.241 100.211L108.505 97.5285C108.528 97.5142 108.55 97.4992 108.571 97.4833C110.174 96.3036 111.413 94.6967 112.146 92.8462L114.767 86.2349C114.874 85.9653 114.869 85.6642 114.754 85.3979C114.639 85.1316 114.423 84.922 114.153 84.8151L111.103 83.606L114.73 74.4551C114.864 74.5082 115.007 74.5344 115.15 74.5322C115.294 74.5301 115.436 74.4996 115.568 74.4426C115.699 74.3856 115.819 74.3032 115.919 74.2C116.019 74.0968 116.097 73.975 116.15 73.8414L120.987 61.6402C121.094 61.3705 121.09 61.0694 120.974 60.8032C120.859 60.5369 120.643 60.3273 120.374 60.2204L115.29 58.205C115.02 58.0981 114.719 58.1027 114.453 58.2178C114.186 58.3329 113.977 58.5491 113.87 58.8187L109.033 71.0201C108.926 71.2897 108.931 71.5908 109.046 71.8571C109.161 72.1233 109.377 72.333 109.647 72.4399L106.019 81.5907L102.969 80.3815C102.699 80.2746 102.398 80.2792 102.132 80.3943C101.865 80.5094 101.656 80.7255 101.549 80.9952L99.0913 87.1944C98.2583 89.3087 98.1209 91.6335 98.6991 93.8312L99.1713 97.2044C93.4543 94.0237 85.8925 90.5436 79.75 90.2397V85.3401L85.7693 80.56C86.5897 80.6567 87.4151 80.705 88.2412 80.7047C88.9445 80.7054 89.6473 80.6689 90.3467 80.5953C94.3749 80.1659 97.4674 78.4844 99.2897 75.7325C103.506 69.3648 100.76 57.7045 100.641 57.2112C100.577 56.9425 100.413 56.7083 100.182 56.5556C99.9516 56.403 99.6719 56.3433 99.3992 56.3886C98.8987 56.4715 87.0915 58.4948 82.875 64.8625C81.0527 67.6144 80.7115 71.1179 81.8887 74.9943C82.3556 76.5098 82.9937 77.9672 83.7906 79.3382L79.75 82.547V62.5423C81.1693 61.8397 82.5041 60.9778 83.7285 59.9733C86.8502 57.3912 88.5 54.2819 88.5 50.9812C88.5 43.3438 79.7727 35.1379 79.4012 34.7925C79.1988 34.6041 78.9326 34.4994 78.6561 34.4994C78.3796 34.4994 78.1134 34.6041 77.911 34.7925C76.27 36.3734 74.7623 38.0872 73.4034 39.9163C70.3574 44.0118 68.8125 47.7347 68.8125 50.9812C68.8125 54.2819 70.4624 57.3912 73.584 59.9733C74.8084 60.9778 76.1432 61.8397 77.5625 62.5423V83.6407L73.5223 80.4327C74.3192 79.0619 74.9573 77.6047 75.4242 76.0893C76.6014 72.2129 76.2603 68.7094 74.4379 65.9575C70.2214 59.5898 58.4145 57.5664 57.9137 57.4835C57.641 57.4383 57.3613 57.498 57.1308 57.6506C56.9004 57.8032 56.7363 58.0375 56.6715 58.3062C56.5525 58.7995 53.8065 70.4598 58.0232 76.8275C59.8455 79.5793 62.938 81.261 66.9663 81.6903C67.6657 81.7639 68.3685 81.8004 69.0717 81.7996C69.8978 81.7999 70.7232 81.7516 71.5436 81.655L77.5625 86.4339V90.2774C77.5264 90.2807 77.4896 90.2825 77.4531 90.2862C72.7158 90.7599 67.6557 92.9932 62.4141 96.9254C60.2371 98.5546 58.1945 100.356 56.3057 102.312H53.5V104.499H123.5V102.312H107.437ZM96.0888 69.7271L92.1527 69.484C91.9372 69.4707 91.7304 69.3939 91.5585 69.2633C91.3866 69.1326 91.2571 68.954 91.1865 68.75L89.897 65.0232L91.9642 64.3078L93.0153 67.3456L96.2235 67.5437L96.0888 69.7271ZM88.4651 67.188L89.7391 71.6587L94.3875 71.6874L94.3738 73.8749L88.9051 73.8411C88.6684 73.8397 88.4386 73.7615 88.2501 73.6183C88.0617 73.4751 87.9247 73.2747 87.8599 73.047L86.3612 67.7878L88.4651 67.188ZM61.0958 68.6372L64.3041 68.4391L65.3552 65.4015L67.4223 66.1166L66.1328 69.8437C66.0622 70.0478 65.9328 70.2264 65.7608 70.357C65.5889 70.4876 65.3821 70.5645 65.1666 70.5778L61.2305 70.8209L61.0958 68.6372ZM62.9455 74.9682L62.9318 72.7807L67.5803 72.752L68.8542 68.2813L70.958 68.8808L69.4592 74.1401C69.3943 74.3677 69.2574 74.5682 69.0689 74.7114C68.8805 74.8545 68.6506 74.9327 68.414 74.9342L62.9455 74.9682ZM74.9375 50.0307L78.6562 52.8198L82.375 50.0307L83.6875 51.7807L79.3125 55.062C79.1232 55.204 78.8929 55.2807 78.6562 55.2807C78.4196 55.2807 78.1893 55.204 78 55.062L73.625 51.7807L74.9375 50.0307ZM74.7684 47.4407L75.9818 45.6207L78.6562 47.4037L81.3309 45.6206L82.5443 47.4407L79.263 49.6282C79.0833 49.748 78.8722 49.8119 78.6563 49.8119C78.4404 49.8119 78.2293 49.748 78.0496 49.6282L74.7684 47.4407ZM66.625 100.124C66.625 99.1092 67.0283 98.1355 67.7462 97.4176C68.4641 96.6997 69.4378 96.2963 70.4531 96.2963C71.4684 96.2963 72.4421 96.6997 73.16 97.4176C73.8779 98.1355 74.2812 99.1092 74.2812 100.124H72.0938C72.0938 99.6893 71.9209 99.272 71.6132 98.9644C71.3055 98.6567 70.8882 98.4838 70.4531 98.4838C70.018 98.4838 69.6007 98.6567 69.293 98.9644C68.9854 99.272 68.8125 99.6893 68.8125 100.124H66.625ZM75.375 98.4838C75.375 97.4686 75.7783 96.4949 76.4962 95.777C77.2141 95.059 78.1878 94.6557 79.2031 94.6557C80.2184 94.6557 81.1921 95.059 81.91 95.777C82.6279 96.4949 83.0312 97.4686 83.0312 98.4838H80.8438C80.8437 98.0487 80.6709 97.6314 80.3632 97.3237C80.0555 97.0161 79.6382 96.8432 79.2031 96.8432C78.768 96.8432 78.3507 97.0161 78.043 97.3237C77.7354 97.6314 77.5625 98.0487 77.5625 98.4838H75.375ZM90.6875 100.124C90.6875 99.6893 90.5147 99.272 90.207 98.9644C89.8993 98.6567 89.482 98.4838 89.0469 98.4838C88.6118 98.4838 88.1945 98.6567 87.8868 98.9644C87.5791 99.272 87.4062 99.6893 87.4062 100.124H85.2188C85.2188 99.1092 85.6221 98.1355 86.34 97.4176C87.0579 96.6997 88.0316 96.2963 89.0469 96.2963C90.0622 96.2963 91.0359 96.6997 91.7538 97.4176C92.4717 98.1355 92.875 99.1092 92.875 100.124H90.6875ZM111.68 73.2456L112.697 73.6486L109.069 82.7995L108.052 82.3964L111.68 73.2456ZM101.125 88.0003L103.18 82.8178L112.33 86.4453L110.112 92.0399C109.535 93.4969 108.563 94.764 107.305 95.6987L102.222 98.8962C102.203 98.9084 102.184 98.9215 102.165 98.9349C101.972 98.8189 101.774 98.7011 101.573 98.5823L100.856 93.4604C100.85 93.4145 100.84 93.3692 100.828 93.3245C100.352 91.564 100.456 89.697 101.125 88.0003H101.125Z" fill="white"/>
<path d="M100.531 50.9063C101.397 50.9063 102.242 50.6497 102.962 50.1689C103.681 49.6882 104.242 49.0049 104.573 48.2055C104.904 47.4061 104.991 46.5264 104.822 45.6777C104.653 44.8291 104.237 44.0495 103.625 43.4377C103.013 42.8258 102.233 42.4091 101.385 42.2403C100.536 42.0715 99.6564 42.1581 98.857 42.4893C98.0576 42.8204 97.3743 43.3812 96.8936 44.1006C96.4128 44.8201 96.1562 45.666 96.1562 46.5313C96.1576 47.6912 96.6189 48.8032 97.4391 49.6234C98.2593 50.4436 99.3713 50.905 100.531 50.9063Z" fill="white"/>
<path d="M55.0904 46.0345C55.2292 46.1733 55.4028 46.2722 55.5929 46.3208C55.7831 46.3694 55.9828 46.366 56.1712 46.3108L59.6036 45.3054L63.0362 46.3108C63.2246 46.366 63.4243 46.3694 63.6145 46.3208C63.8047 46.2722 63.9783 46.1733 64.117 46.0345C64.2558 45.8958 64.3547 45.7222 64.4033 45.532C64.4519 45.3418 64.4485 45.1421 64.3933 44.9537L63.388 41.5211L64.3934 38.0885C64.4486 37.9002 64.4521 37.7004 64.4035 37.5103C64.3549 37.3201 64.256 37.1465 64.1172 37.0077C63.9784 36.8689 63.8048 36.7701 63.6146 36.7214C63.4245 36.6728 63.2247 36.6763 63.0364 36.7315L59.6038 37.7369L56.1712 36.7316C55.9828 36.6764 55.7831 36.673 55.5929 36.7216C55.4027 36.7702 55.2292 36.8691 55.0904 37.0079C54.9516 37.1467 54.8527 37.3202 54.8041 37.5104C54.7555 37.7006 54.7589 37.9003 54.8141 38.0887L55.8195 41.5213L54.8141 44.9537C54.759 45.1421 54.7555 45.3418 54.8041 45.532C54.8527 45.7221 54.9516 45.8957 55.0904 46.0345V46.0345Z" fill="white"/>
<path d="M91.7812 84.8125H89.5938V87H91.7812V84.8125Z" fill="white"/>
</g>
<defs>
<clipPath id="clip0_17_55">
<rect width="176" height="176" fill="white" transform="translate(0 -15)"/>
</clipPath>
<clipPath id="clip1_17_55">
<rect width="70" height="70" fill="white" transform="translate(53.5 34.5)"/>
</clipPath>
</defs>
</svg>
