<svg width="176" height="146" viewBox="0 0 176 146" fill="none" xmlns="http://www.w3.org/2000/svg">
<rect width="176" height="146" fill="#E5E5E5"/>
<rect width="1928" height="8962" transform="translate(-1057 -1585)" fill="white"/>
<g filter="url(#filter0_d_17_55)">
<rect x="-77" y="-25" width="330" height="366" rx="10" fill="url(#paint0_linear_17_55)"/>
<g clip-path="url(#clip0_17_55)">
<path opacity="0.3" d="M120.884 44.241C103.923 54.558 102.021 76.6786 102.697 90.686C115.597 75.5219 131.493 67.4866 140.57 65.9714C125.975 71.6892 114.978 83.0737 105.832 95.6434C102.142 102.111 98.7464 108.439 96.8198 115.424C94.7145 107.245 91.1217 99.5974 87.2457 91.7825C76.3591 74.8188 62.9789 59.2522 44.52 50.7487C56.1535 53.3951 76.1279 64.9966 91.6775 85.6016C93.6149 67.5218 92.8168 38.7401 71.6448 24.1079C48.3501 8.01028 18.9456 2.51794 4.42372 0.709411C1.12392 0.298769 -1.16973 3.91968 0.633002 6.71428C5.38781 14.0858 11.8454 27.2105 12.7979 45.1352C13.7462 63.0502 14.8457 96.1533 78.8125 101.099C88.314 118.463 92.9932 127.72 94.723 144.313C94.8542 145.572 96.6334 145.69 96.9348 144.461C98.1123 139.656 101.209 115.492 111.907 103.196C161.383 102.262 163.714 76.8237 165.253 63.0734C166.66 50.4573 171.452 41.1577 175.315 35.4897C177.164 32.7773 175.033 29.1271 171.76 29.3876C159.962 30.327 138.533 33.5091 120.884 44.241Z" fill="#FBEEE7"/>
</g>
</g>
<g clip-path="url(#clip1_17_55)">
<path d="M90.94 98.3477C90.8553 98.2748 90.7711 98.201 90.6875 98.1265V98.3944C90.7719 98.3789 90.8561 98.3634 90.94 98.3477Z" fill="#00730C"/>
<path d="M122.389 34.5009C122.331 34.5018 116.45 34.6052 108.481 35.6701C107.565 35.7924 107.204 36.9971 107.929 37.5967C111.282 40.3732 106.971 47.0765 102.91 43.3751C102.722 43.2084 102.482 43.1117 102.231 43.1013C101.98 43.091 101.732 43.1675 101.531 43.3181C100.029 44.4097 97.8023 44.6355 96.1112 43.8668C95.8512 43.7485 95.5553 43.7367 95.2867 43.8338C95.0181 43.9309 94.7981 44.1292 94.6738 44.3863C92.8949 48.0661 86.6454 46.5313 87.4609 42.064C87.4911 41.8765 87.4726 41.6843 87.4071 41.506C87.3415 41.3277 87.2313 41.1692 87.0868 41.0458C86.9423 40.9225 86.7686 40.8383 86.5822 40.8015C86.3959 40.7647 86.2032 40.7764 86.0226 40.8356C80.7668 42.6813 76.2062 44.9948 72.4697 47.7138C72.3488 47.8009 72.2468 47.9116 72.1698 48.0392C72.0928 48.1669 72.0424 48.3088 72.0218 48.4564C72.0011 48.604 72.0105 48.7542 72.0495 48.8981C72.0885 49.0419 72.1562 49.1764 72.2485 49.2934C74.386 51.9526 72.2116 56.41 68.8271 56.3755C68.5353 56.3748 68.2551 56.4895 68.0476 56.6947C67.8401 56.8999 67.7222 57.1788 67.7197 57.4706C67.723 60.2018 64.9424 62.3681 62.313 61.7207C62.0516 61.6562 61.7756 61.6904 61.5378 61.8166C61.3001 61.9429 61.1172 62.1525 61.0243 62.4052C57.2488 72.6738 59.8108 83.9317 62.8563 92.0513L54.1406 100.766C52.2285 102.662 55.0955 105.992 57.2343 103.859L66.0117 95.082C70.21 96.3779 79.3371 98.7785 84.1247 98.9298V94.6563C84.1132 93.4622 84.8903 92.5315 85.7091 91.7127C86.6465 90.7754 85.1949 89.4587 84.3419 90.3293L83.1636 91.5077C80.2762 94.4494 75.4227 89.9655 78.5233 86.8673L80.8437 84.5472V80.4375C80.8417 79.8277 81.0105 79.2295 81.3311 78.7107C81.6518 78.192 82.1113 77.7735 82.6577 77.5026C84.0078 76.8278 85.6442 76.1971 86.3406 74.7305C86.7062 74.0119 86.8627 73.2051 86.7924 72.402C86.7221 71.5988 86.4277 70.8316 85.9428 70.1875C85.1586 69.1368 85.2182 67.0688 85.2182 65.7873C85.2181 65.1144 85.052 64.452 84.7345 63.8587C84.417 63.2654 83.958 62.7597 83.3982 62.3864C79.6938 59.9371 83.5469 54.5798 87.0387 56.9264C87.2901 57.094 87.5827 57.1892 87.8845 57.2015C88.1863 57.2138 88.4857 57.1428 88.7499 56.9962C89.014 56.8496 89.2327 56.6332 89.382 56.3705C89.5312 56.1079 89.6053 55.8092 89.5961 55.5073C89.595 55.4731 89.5942 55.4393 89.5939 55.4058C89.5436 50.9513 96.1564 50.9972 96.1564 55.2813C96.1564 57.2774 98.3439 59.6563 101.625 59.6563C104.906 59.6563 107.094 56.9408 107.094 55.2813C107.094 50.8159 113.656 51.1213 113.656 55.2813C113.656 55.2966 113.656 55.3121 113.656 55.3274C113.654 55.6222 113.727 55.9127 113.869 56.1711C114.011 56.4295 114.217 56.6472 114.467 56.8032C114.717 56.9592 115.003 57.0483 115.297 57.0621C115.592 57.0758 115.885 57.0136 116.149 56.8816C117.897 56.0203 119.993 56.2642 120.957 58.1708C122.407 50.6673 123.155 42.9111 123.499 35.6464C123.504 35.4976 123.479 35.3493 123.426 35.2103C123.372 35.0713 123.291 34.9446 123.188 34.8376C123.084 34.7307 122.96 34.6458 122.823 34.5879C122.685 34.53 122.538 34.5004 122.389 34.5009Z" fill="#00730C"/>
<path d="M123.18 88.4141L120.219 85.4533V80.4375C120.219 80.2344 120.162 80.0353 120.055 79.8625C119.949 79.6898 119.796 79.5501 119.614 79.4593L115.666 77.4844C115.225 75.205 113.994 73.1546 112.188 71.6949L115.406 69.2813C115.542 69.1794 115.652 69.0473 115.728 68.8954C115.804 68.7435 115.844 68.5761 115.844 68.4063V62.4291L118.638 60.5663C119.743 59.8289 118.661 57.9037 117.425 58.7463L114.143 60.9338C113.994 61.0336 113.871 61.1689 113.786 61.3277C113.701 61.4864 113.656 61.6637 113.656 61.8438V67.8594L110.207 70.4464C109.871 70.2876 109.527 70.1481 109.175 70.0284L108.49 67.2305C108.077 65.5344 107.05 64.0516 105.607 63.069C108.504 61.1794 111.469 59.1414 111.469 55.2813C111.469 53.9277 109.281 53.8087 109.281 55.2813C109.281 59.0957 105.79 60.3069 103.212 62.0235C102.167 61.7876 101.083 61.7876 100.038 62.0235C97.5089 60.3389 93.9688 58.9852 93.9688 55.2813C93.9688 53.9277 91.7813 53.8085 91.7813 55.2813C91.7813 59.2808 94.6177 61.1204 97.6401 63.0707C96.1986 64.0533 95.1725 65.5354 94.7602 67.2305L94.0749 70.0286C93.7233 70.1482 93.3788 70.2878 93.0431 70.4465L89.5938 67.8594V61.8438C89.5938 61.6637 89.5494 61.4865 89.4644 61.3277C89.3795 61.169 89.2566 61.0336 89.1068 60.9338L85.8256 58.7463C84.616 57.9227 83.474 59.8237 84.6122 60.5663L87.4063 62.4291V68.4063C87.4063 68.5761 87.4459 68.7435 87.5218 68.8954C87.5977 69.0473 87.708 69.1794 87.8438 69.2813L91.0626 71.6953C89.2574 73.1549 88.0257 75.2052 87.5847 77.4844L83.6359 79.4589C83.4542 79.5498 83.3014 79.6894 83.1946 79.8623C83.0878 80.0352 83.0313 80.2343 83.0313 80.4375V85.4533L80.0704 88.4141C79.1487 89.3181 80.524 91.0488 81.6173 89.9609L84.8985 86.6797C85.0001 86.5781 85.0806 86.4575 85.1356 86.3248C85.1906 86.1921 85.2188 86.0499 85.2188 85.9063V81.1135L87.4063 80.0866C88.9786 77.5227 92.006 76.0625 96.1563 76.0625H107.094C111.244 76.0625 114.272 77.5227 115.844 80.0866V80.0197L118.031 81.1135V85.9063C118.031 86.0499 118.06 86.1921 118.115 86.3248C118.17 86.4575 118.25 86.5781 118.352 86.6797L121.633 89.9609C122.609 90.9535 124.182 89.3996 123.18 88.4141Z" fill="#00730C"/>
<path d="M96.1562 78.2501V90.8375C96.1562 94.1553 97.5258 97.5128 99.7864 100.004C100.033 100.036 100.281 100.06 100.531 100.079V78.2501H96.1562Z" fill="#00730C"/>
<path d="M107.094 78.2501H102.719V100.079C102.969 100.06 103.217 100.036 103.463 100.004C105.724 97.5128 107.094 94.1553 107.094 90.8375V78.2501Z" fill="#00730C"/>
<path d="M93.9687 90.8374V78.4462C90.8788 79.0235 88.679 80.8359 87.4062 83.2997V85.9062C87.404 87.9474 87.844 89.9648 88.6961 91.8196L86.6327 93.8828C86.5312 93.9844 86.4506 94.105 86.3956 94.2377C86.3407 94.3704 86.3124 94.5126 86.3124 94.6562V99.672L83.3515 102.633C82.4375 103.528 83.7985 105.274 84.8983 104.18L88.1796 100.898C88.2811 100.797 88.3617 100.676 88.4167 100.544C88.4716 100.411 88.4999 100.269 88.4999 100.125V95.1092L89.8069 93.8021C91.4184 96.2063 93.7215 98.0648 96.4117 99.1323C94.8616 96.6365 93.9687 93.7246 93.9687 90.8374Z" fill="#00730C"/>
<path d="M119.898 102.633L116.937 99.6721V94.6563C116.937 94.5126 116.909 94.3704 116.854 94.2377C116.799 94.105 116.719 93.9844 116.617 93.8829L114.554 91.8196C115.406 89.9648 115.846 87.9474 115.844 85.9063V83.2993C114.571 80.8359 112.371 79.0236 109.281 78.4458V90.837C109.281 93.7243 108.388 96.6361 106.838 99.1319C109.528 98.0645 111.831 96.206 113.443 93.8018L114.75 95.1088V100.125C114.75 100.269 114.778 100.411 114.833 100.544C114.888 100.676 114.969 100.797 115.07 100.898L118.351 104.18C119.327 105.172 120.901 103.618 119.898 102.633Z" fill="#00730C"/>
</g>
<defs>
<filter id="filter0_d_17_55" x="-105" y="-44" width="390" height="426" filterUnits="userSpaceOnUse" color-interpolation-filters="sRGB">
<feFlood flood-opacity="0" result="BackgroundImageFix"/>
<feColorMatrix in="SourceAlpha" type="matrix" values="0 0 0 0 0 0 0 0 0 0 0 0 0 0 0 0 0 0 127 0" result="hardAlpha"/>
<feOffset dx="2" dy="11"/>
<feGaussianBlur stdDeviation="15"/>
<feColorMatrix type="matrix" values="0 0 0 0 0.2 0 0 0 0 0.2 0 0 0 0 0.2 0 0 0 0.08 0"/>
<feBlend mode="normal" in2="BackgroundImageFix" result="effect1_dropShadow_17_55"/>
<feBlend mode="normal" in="SourceGraphic" in2="effect1_dropShadow_17_55" result="shape"/>
</filter>
<linearGradient id="paint0_linear_17_55" x1="24" y1="-85" x2="88" y2="341" gradientUnits="userSpaceOnUse">
<stop stop-color="white"/>
<stop offset="1" stop-color="white"/>
</linearGradient>
<clipPath id="clip0_17_55">
<rect width="176" height="176" fill="white" transform="translate(0 -15)"/>
</clipPath>
<clipPath id="clip1_17_55">
<rect width="70" height="70" fill="white" transform="translate(53.5 34.5)"/>
</clipPath>
</defs>
</svg>
